<svg xmlns="http://www.w3.org/2000/svg" xmlns:xlink="http://www.w3.org/1999/xlink" width="128" zoomAndPan="magnify" viewBox="0 0 96 95.999999" height="128" preserveAspectRatio="xMidYMid meet" version="1.0"><defs><clipPath id="314299b7bf"><path d="M 56 43 L 62.097656 43 L 62.097656 53 L 56 53 Z M 56 43 " clip-rule="nonzero"/></clipPath></defs><path fill="#000000" d="M 34.089844 52.582031 L 37.59375 52.582031 C 39.160156 52.582031 40.273438 51.640625 40.273438 50.097656 C 40.273438 48.902344 39.597656 48.140625 38.496094 47.921875 L 38.496094 47.882812 C 39.421875 47.65625 40 46.96875 40 45.9375 C 40 44.511719 38.960938 43.621094 37.46875 43.621094 L 34.089844 43.621094 Z M 39.058594 46.050781 C 39.058594 46.96875 38.410156 47.554688 37.34375 47.554688 L 35.027344 47.554688 L 35.027344 44.433594 L 37.34375 44.433594 C 38.410156 44.433594 39.058594 45.007812 39.058594 45.921875 Z M 39.335938 50.125 C 39.335938 51.117188 38.621094 51.765625 37.457031 51.765625 L 35.027344 51.765625 L 35.027344 48.34375 L 37.445312 48.34375 C 38.609375 48.34375 39.335938 48.964844 39.335938 49.996094 Z M 39.335938 50.125 " fill-opacity="1" fill-rule="nonzero"/><path fill="#000000" d="M 46.859375 52.582031 L 47.859375 52.582031 L 44.929688 43.621094 L 43.789062 43.621094 L 40.898438 52.582031 L 41.847656 52.582031 L 42.601562 50.148438 L 46.105469 50.148438 Z M 44.328125 44.597656 L 44.402344 44.597656 L 45.867188 49.347656 L 42.851562 49.347656 Z M 44.328125 44.597656 " fill-opacity="1" fill-rule="nonzero"/><path fill="#000000" d="M 51.8125 52.761719 C 53.742188 52.761719 55.007812 51.703125 55.007812 50.113281 C 55.007812 48.636719 54.054688 47.933594 52.613281 47.691406 L 51.335938 47.476562 C 50.359375 47.3125 49.710938 46.878906 49.710938 45.921875 C 49.710938 44.957031 50.433594 44.21875 51.8125 44.21875 C 53.152344 44.21875 53.84375 44.90625 53.917969 45.886719 L 54.882812 45.886719 C 54.804688 44.585938 53.828125 43.429688 51.824219 43.429688 C 49.847656 43.429688 48.757812 44.5625 48.757812 45.960938 C 48.757812 47.453125 49.746094 48.140625 51.097656 48.367188 L 52.390625 48.570312 C 53.464844 48.761719 54.066406 49.207031 54.066406 50.148438 C 54.066406 51.257812 53.179688 51.972656 51.824219 51.972656 C 50.421875 51.972656 49.546875 51.285156 49.472656 50.113281 L 48.519531 50.113281 C 48.59375 51.640625 49.746094 52.761719 51.8125 52.761719 Z M 51.8125 52.761719 " fill-opacity="1" fill-rule="nonzero"/><g clip-path="url(#314299b7bf)"><path fill="#000000" d="M 56.417969 43.621094 L 56.417969 52.582031 L 62.078125 52.582031 L 62.078125 51.753906 L 57.355469 51.753906 L 57.355469 48.34375 L 61.703125 48.34375 L 61.703125 47.527344 L 57.355469 47.527344 L 57.355469 44.445312 L 62.078125 44.445312 L 62.078125 43.621094 Z M 56.417969 43.621094 " fill-opacity="1" fill-rule="nonzero"/></g></svg>